<?xml version="1.0" standalone="no"?>
<!DOCTYPE svg PUBLIC "-//W3C//DTD SVG 1.1//EN" "http://www.w3.org/Graphics/SVG/1.1/DTD/svg11.dtd" >
<svg xmlns="http://www.w3.org/2000/svg">
<metadata></metadata>
<defs>
<font id="heroic_condensed_regularRg" horiz-adv-x="725" >
<font-face units-per-em="2048" ascent="1536" descent="-512" />
<missing-glyph horiz-adv-x="372" />
<glyph horiz-adv-x="2048" />
<glyph horiz-adv-x="2048" />
<glyph unicode="&#xd;" horiz-adv-x="2048" />
<glyph unicode=" "  horiz-adv-x="372" />
<glyph unicode="&#x09;" horiz-adv-x="372" />
<glyph unicode="&#xa0;" horiz-adv-x="372" />
<glyph unicode="0" d="M110 238v1012q0 60 12.5 106t40 82t78 55t121.5 19t121.5 -19t78 -55t40 -82t12.5 -106v-1012q0 -60 -12.5 -105t-40.5 -81t-78 -54.5t-121.5 -18.5t-121.5 18.5t-77.5 54.5t-40 81t-12.5 105zM245 238q0 -67 26.5 -103.5t90.5 -36.5t90.5 37t26.5 103v1012 q0 67 -26.5 103.5t-90.5 36.5q-27 0 -47.5 -6.5t-33.5 -19t-21 -30.5t-11.5 -38t-3.5 -46v-1012z" />
<glyph unicode="1" horiz-adv-x="557" d="M79 1256v92q159 0 159 143h109v-1363h130v-128h-394v128h130v1128h-134z" />
<glyph unicode="2" horiz-adv-x="681" d="M100 0v213q0 103 20 188.5t51.5 144t70 109.5t77 97t70 93.5t51.5 111t20 138.5v161q0 134 -113 134t-113 -134v-170h-134v170q0 59 11.5 103.5t39 80t77 54t120 18.5t119.5 -18.5t76.5 -54t39 -80t11.5 -103.5v-159q0 -70 -12.5 -130.5t-33 -106.5t-47.5 -87t-57 -77 t-60 -72.5t-57 -77.5t-47.5 -87t-33 -107.5t-12.5 -132.5v-91h367v-128h-501z" />
<glyph unicode="3" horiz-adv-x="717" d="M100 238v188h132v-188q0 -37 10.5 -67t37 -51.5t65.5 -21.5q64 0 89.5 36.5t25.5 103.5v323q0 54 -29 92t-86 38h-73v122h73q61 0 84.5 32.5t23.5 93.5v319q0 33 -10.5 62t-36 49.5t-63.5 20.5q-109 0 -109 -132v-172h-130v172q0 59 11.5 103t37.5 79.5t74 53.5t116 18 q69 0 117.5 -18t75 -53.5t38.5 -79.5t12 -103v-306q0 -153 -113 -198q121 -43 121 -198v-318q0 -60 -11.5 -105t-39 -81t-77 -54.5t-121 -18.5t-120.5 19t-76 55t-38 80.5t-11 104.5z" />
<glyph unicode="4" horiz-adv-x="691" d="M57 328v139l301 1024h179v-1040h95v-123h-95v-328h-135v328h-345zM168 451h234v284q0 4 2 284t-2 296z" />
<glyph unicode="5" d="M110 238v188h135v-188q0 -67 26.5 -103.5t90.5 -36.5t90.5 37t26.5 103v418q0 64 -25 97t-86 33q-85 0 -134 -75h-108l38 780h428v-130h-309l-23 -513q63 53 140 53q115 0 164.5 -59t49.5 -186v-418q0 -60 -12.5 -105t-40.5 -81t-78 -54.5t-121.5 -18.5t-121.5 18.5 t-77.5 54.5t-40 81t-12.5 105z" />
<glyph unicode="6" horiz-adv-x="736" d="M122 238v1012q0 127 57.5 194.5t193 67.5t193.5 -68t58 -194v-164h-134v164q0 71 -27.5 105.5t-90 34.5t-89.5 -34.5t-27 -105.5v-445q70 67 153 67q58 0 100 -16.5t67 -49t36.5 -78t11.5 -106.5v-384q0 -126 -58 -192.5t-193.5 -66.5t-193 66.5t-57.5 192.5zM256 238 q0 -45 10 -74.5t36.5 -47.5t69.5 -18q64 0 91 36t27 104v384q0 132 -116 132q-39 0 -70 -19.5t-48 -49.5v-447z" />
<glyph unicode="7" horiz-adv-x="583" d="M47 1361v130h488v-107q-84 -264 -122.5 -446.5t-54 -389.5t-15.5 -548h-147q0 405 46 719.5t165 641.5h-360z" />
<glyph unicode="8" d="M110 238v297q0 42 6.5 75.5t20.5 62t38 48.5t59 33q-112 45 -112 198v306q0 47 6.5 84t23.5 69.5t44 54.5t69 34t97 12q35 0 64.5 -4.5t53 -14t42.5 -22.5t32.5 -30t23.5 -37t16 -43.5t8.5 -48.5t2.5 -54v-306q0 -152 -115 -198q67 -25 95.5 -78.5t28.5 -140.5v-297 q0 -60 -12.5 -105t-40.5 -81t-78 -54.5t-121.5 -18.5t-121.5 18.5t-77.5 54.5t-40 81t-12.5 105zM245 254q0 -36 5 -62t17 -48.5t36 -34t59 -11.5t59 11.5t36.5 34t17 48.5t4.5 62v291q0 27 -2 48t-9.5 41.5t-20 33.5t-34 21t-51.5 8q-36 0 -60 -11.5t-36 -34t-16.5 -47 t-4.5 -59.5v-291zM254 950q0 -33 4 -56t15 -43.5t33.5 -31t55.5 -10.5q34 0 56.5 10.5t34 30.5t16 43.5t4.5 56.5v296q0 69 -23.5 106.5t-87.5 37.5q-19 0 -34.5 -3.5t-26.5 -10.5t-19.5 -17t-13.5 -22t-8.5 -27t-4.5 -30.5t-1 -33.5v-296z" />
<glyph unicode="9" d="M110 240v186h135v-186q0 -71 27.5 -105.5t89.5 -34.5t89.5 35t27.5 105v467q-70 -66 -153 -66q-115 0 -165.5 62.5t-50.5 186.5v362q0 126 58 193t194 67q69 0 118.5 -18t78.5 -53t42 -81t13 -108v-1012q0 -126 -58.5 -193.5t-193.5 -67.5q-56 0 -99 12t-71.5 34t-47 55 t-26.5 72t-8 88zM245 890q0 -132 115 -132q39 0 71 19.5t48 49.5v425q0 68 -26.5 104.5t-90.5 36.5q-43 0 -69.5 -18t-37 -48t-10.5 -75v-362z" />
<glyph unicode="A" horiz-adv-x="689" d="M57 0l205 1491h166l202 -1491h-136l-41 341h-219l-41 -341h-136zM248 464h191l-94 822z" />
<glyph unicode="B" horiz-adv-x="750" d="M132 0v1491h242q75 0 125 -14t78.5 -45t39.5 -72t11 -102v-313q0 -75 -26.5 -122t-87.5 -69q66 -22 95.5 -70t29.5 -126v-310q0 -62 -11 -104.5t-38 -76.5t-77 -50.5t-125 -16.5h-256zM266 128h114q70 0 97 30t27 94v311q0 62 -28 95t-96 33h-114v-563zM266 813h104 q68 0 97 33t29 95v299q0 63 -28 92t-96 29h-106v-548z" />
<glyph unicode="C" horiz-adv-x="699" d="M110 238v1012q0 60 12.5 106t40 82t78 55t121.5 19q250 0 250 -262v-164h-130v164q0 40 -12 70.5t-39.5 50t-68.5 19.5q-27 0 -47.5 -6.5t-33.5 -19t-21 -30.5t-11.5 -38t-3.5 -46v-1012q0 -63 27.5 -101.5t89.5 -38.5q120 0 120 140v188h130v-188q0 -123 -58.5 -191 t-191.5 -68q-72 0 -122 18.5t-77.5 54.5t-40 81t-12.5 105z" />
<glyph unicode="D" horiz-adv-x="762" d="M132 0v1491h248q60 0 105 -12t74 -34t47 -55t25.5 -70.5t7.5 -86.5v-975q0 -61 -11.5 -105.5t-39 -80.5t-78.5 -54t-126 -18h-252zM266 128h110q72 0 100 32.5t28 97.5v975q0 65 -28 96.5t-100 31.5h-110v-1233z" />
<glyph unicode="E" horiz-adv-x="640" d="M132 0v1491h424v-130h-290v-548h250v-122h-250v-563h290v-128h-424z" />
<glyph unicode="F" horiz-adv-x="612" d="M132 0v1491h411v-130h-277v-548h238v-122h-238v-691h-134z" />
<glyph unicode="G" horiz-adv-x="736" d="M122 238v1014q0 40 5 72.5t16 62.5t30.5 52.5t47 39t65.5 25t86 8.5q70 0 119.5 -18.5t77.5 -54.5t40.5 -81.5t12.5 -105.5v-166h-132v166q0 61 -28 99.5t-90 38.5q-33 0 -56.5 -9.5t-36 -29t-18 -43.5t-5.5 -56v-1014q0 -63 27.5 -101.5t88.5 -38.5q65 0 91.5 36 t26.5 104v453h-118v122h252v-575q0 -60 -12 -105t-40 -81t-78 -54.5t-121.5 -18.5t-121.5 18.5t-77.5 54.5t-39.5 81t-12 105z" />
<glyph unicode="H" horiz-adv-x="774" d="M132 0v1491h134v-678h240v678h135v-1491h-135v691h-240v-691h-134z" />
<glyph unicode="I" horiz-adv-x="400" d="M132 0v1491h134v-1491h-134z" />
<glyph unicode="J" horiz-adv-x="685" d="M69 236v190h134v-190q0 -138 108 -138q61 0 83.5 34.5t22.5 103.5v1255h134v-1255q0 -62 -11 -106.5t-37 -80t-74 -53t-118 -17.5q-132 0 -187 67t-55 190z" />
<glyph unicode="K" horiz-adv-x="713" d="M132 0v1491h134v-682l248 682h148l-288 -739l301 -752h-147l-262 695v-695h-134z" />
<glyph unicode="L" horiz-adv-x="549" d="M132 0v1491h134v-1363h234v-128h-368z" />
<glyph unicode="M" horiz-adv-x="1022" d="M132 0v1491h171l206 -1267l209 1267h170v-1491h-128v509q0 88 8.5 397t9.5 346l-203 -1252h-130l-203 1252q1 -41 9.5 -347.5t8.5 -395.5v-509h-128z" />
<glyph unicode="N" horiz-adv-x="821" d="M132 0v1491h132l313 -1165q-12 468 -12 682v483h130v-1491h-132l-313 1163q12 -460 12 -681v-482h-130z" />
<glyph unicode="O" d="M110 238v1012q0 60 12.5 106t40 82t78 55t121.5 19t121.5 -19t78 -55t40 -82t12.5 -106v-1012q0 -60 -12.5 -105t-40.5 -81t-78 -54.5t-121.5 -18.5t-121.5 18.5t-77.5 54.5t-40 81t-12.5 105zM245 238q0 -67 26.5 -103.5t90.5 -36.5t90.5 37t26.5 103v1012 q0 67 -26.5 103.5t-90.5 36.5q-27 0 -47.5 -6.5t-33.5 -19t-21 -30.5t-11.5 -38t-3.5 -46v-1012z" />
<glyph unicode="P" horiz-adv-x="711" d="M132 0v1491h242q75 0 126.5 -18t79 -54t39 -80.5t11.5 -105.5v-337q0 -117 -62.5 -185t-197.5 -68h-104v-643h-134zM266 766h102q71 0 99.5 32.5t28.5 97.5v337q0 25 -4.5 45t-14 35.5t-24 26t-36 16t-49.5 5.5h-102v-595z" />
<glyph unicode="Q" d="M110 238v1012q0 60 12.5 106t40 82t78 55t121.5 19t121.5 -19t78 -55t40 -82t12.5 -106v-1012q0 -112 -44.5 -177.5t-150.5 -77.5q2 -49 25.5 -70t77.5 -21h47l-22 -85h-25q-74 0 -121.5 20t-70.5 59t-25 97q-107 12 -151 77.5t-44 177.5zM245 238q0 -67 26.5 -103.5 t90.5 -36.5t90.5 37t26.5 103v1012q0 67 -26.5 103.5t-90.5 36.5q-27 0 -47.5 -6.5t-33.5 -19t-21 -30.5t-11.5 -38t-3.5 -46v-1012z" />
<glyph unicode="R" horiz-adv-x="740" d="M132 0v1491h244q75 0 126 -18t78.5 -54t38.5 -80t11 -106v-337q0 -209 -168 -244l241 -652h-150l-218 643h-69v-643h-134zM266 766h102q71 0 99.5 32.5t28.5 97.5v337q0 25 -4.5 45t-14 35.5t-24 26t-36 16t-49.5 5.5h-102v-595z" />
<glyph unicode="S" horiz-adv-x="699" d="M100 240v186h134v-186q0 -142 115 -142q66 0 90.5 36.5t24.5 105.5v182q0 46 -6 85t-14 67.5t-23.5 55.5t-28 43.5t-35 37t-36 30.5t-39.5 29t-39 29t-36 31t-35 37.5t-28 44t-24 56.5t-14 68.5t-6 85.5v128q0 61 11 106t38 82t77 55.5t123.5 18.5t123.5 -18.5 t76.5 -55.5t37.5 -82t11 -106v-164h-134v164q0 140 -115 140q-65 0 -90 -36t-25 -104v-126q0 -49 9.5 -89t22 -66t37.5 -52.5t42 -39.5t50 -37q28 -20 42.5 -31t39.5 -34.5t39 -43t32 -52t27.5 -67.5t16 -83t6.5 -105v-184q0 -61 -11 -105.5t-37.5 -81.5t-76.5 -55.5 t-123.5 -18.5t-123.5 19t-77 55.5t-38 81t-11 105.5z" />
<glyph unicode="T" horiz-adv-x="585" d="M47 1361v130h490v-130h-177v-1361h-134v1361h-179z" />
<glyph unicode="U" horiz-adv-x="744" d="M122 240v1251h134v-1251q0 -68 25.5 -105t91 -37t90.5 37t25 105v1251h134v-1251q0 -58 -12.5 -103.5t-40.5 -82t-77.5 -56t-119.5 -19.5q-73 0 -123 19t-77.5 55t-38.5 81t-11 106z" />
<glyph unicode="V" horiz-adv-x="689" d="M57 1491h139l149 -1235l147 1235h138l-208 -1491h-156z" />
<glyph unicode="W" horiz-adv-x="1140" d="M69 1491h136l132 -1233l161 1233h141l162 -1233l132 1233h136l-189 -1491h-154l-157 1223l-156 -1223h-155z" />
<glyph unicode="X" horiz-adv-x="677" d="M49 0l219 773l-205 718h144l132 -546l132 546h143l-207 -718l221 -773h-142l-147 598l-148 -598h-142z" />
<glyph unicode="Y" horiz-adv-x="642" d="M47 1491h140l132 -678l134 678h141l-206 -871v-620h-134v620z" />
<glyph unicode="Z" horiz-adv-x="589" d="M69 0v85l299 1276h-299v130h445v-85l-301 -1278h307v-128h-451z" />
<glyph unicode="a" horiz-adv-x="666" d="M89 222v136q0 84 31.5 141.5t106.5 103t210 85.5v155q0 41 -11 70t-35 46t-59 17q-60 0 -83 -34t-23 -101v-49h-126v51q0 45 6.5 80.5t23 66.5t42.5 51.5t66.5 32.5t93.5 12q67 0 113.5 -17.5t72 -51t36.5 -75.5t11 -99v-843h-75l-34 63q-22 -42 -58 -63t-93 -21 q-112 0 -164 59.5t-52 183.5zM217 222q0 -66 25.5 -99.5t85.5 -33.5q56 0 82.5 35.5t26.5 97.5v370q-67 -21 -110.5 -44.5t-67.5 -52.5t-33 -60t-9 -75v-138z" />
<glyph unicode="b" horiz-adv-x="687" d="M110 0v1512h128v-502q14 22 36 39t50.5 27t59.5 10q74 0 118.5 -27.5t64 -80.5t19.5 -139v-615q0 -127 -48 -186t-158.5 -59t-157.5 87l-35 -66h-77zM238 226q0 -137 114 -137q56 0 81 35.5t25 101.5v613q0 137 -106 137q-59 0 -86.5 -37.5t-27.5 -103.5v-609z" />
<glyph unicode="c" horiz-adv-x="663" d="M100 226v611q0 120 54.5 184.5t184.5 64.5q68 0 114.5 -17.5t72 -52t36.5 -77.5t11 -102v-117h-126v117q0 70 -24.5 104.5t-83.5 34.5q-41 0 -66 -16.5t-35 -46.5t-10 -76v-611q0 -46 10 -75t35 -45.5t66 -16.5q59 0 83.5 34t24.5 103v140h126v-140q0 -59 -11 -102 t-36.5 -77t-72 -51t-114.5 -17q-69 0 -116.5 17t-74 51t-37.5 77t-11 102z" />
<glyph unicode="d" horiz-adv-x="697" d="M110 224v615q0 128 47 187.5t156 59.5q46 0 84.5 -21t60.5 -55v502h128v-1512h-77l-34 66q-47 -87 -158 -87t-159 59.5t-48 185.5zM238 226q0 -137 107 -137q113 0 113 137v609q0 141 -113 141q-107 0 -107 -137v-613z" />
<glyph unicode="e" horiz-adv-x="674" d="M100 226v611q0 59 11.5 102.5t38 77.5t74 51.5t115.5 17.5t114.5 -17.5t72 -52t36.5 -77.5t11 -102v-309h-345v-302q0 -137 111 -137q59 0 83.5 34t24.5 103v140h126v-140q0 -59 -11 -102t-36.5 -77t-72 -51t-114.5 -17q-69 0 -116.5 17t-74 51t-37.5 77t-11 102z M228 628h219v207q0 72 -24 106.5t-84 34.5q-41 0 -66 -16.5t-35 -46.5t-10 -76v-209z" />
<glyph unicode="f" horiz-adv-x="491" d="M47 952v113h98v230q0 61 10 103.5t35 74t69.5 46.5t110.5 15q45 0 83 -14v-112q-29 15 -79 15q-58 0 -80 -28.5t-22 -99.5v-230h156v-113h-156v-952h-127v952h-98z" />
<glyph unicode="g" horiz-adv-x="689" d="M69 -113q0 163 134 213q-56 24 -56 81q0 56 60 81q-62 26 -87.5 82.5t-25.5 145.5v345q0 47 6.5 83.5t23 68.5t43 53.5t67.5 33.5t96 12q51 0 101 -15q41 124 148 124q37 0 62 -8v-101q-44 11 -68 11q-61 0 -87 -51q83 -58 83 -211v-345q0 -47 -7 -83.5t-24 -68.5 t-44 -53t-68.5 -33t-95.5 -12q-31 0 -50.5 -6.5t-28.5 -19.5t-9 -33q0 -59 88 -59q143 0 204.5 -61t61.5 -174v-19q0 -106 -63 -168t-201 -62q-263 0 -263 230v19zM193 -102v-20q0 -130 139 -130q72 0 105.5 32.5t33.5 97.5v20q0 67 -33.5 99.5t-105.5 32.5q-48 0 -79 -15.5 t-45.5 -44t-14.5 -72.5zM222 486q0 -47 9 -77t33.5 -47t65.5 -17q60 0 85.5 34.5t25.5 114.5v341q0 69 -25.5 105t-85.5 36q-33 0 -54 -9.5t-33 -29t-16.5 -46t-4.5 -64.5v-341z" />
<glyph unicode="h" horiz-adv-x="697" d="M110 0v1512h128v-504q22 35 60 56.5t84 21.5q109 0 156.5 -59.5t47.5 -185.5v-841h-128v841q0 66 -25 100.5t-81 34.5q-114 0 -114 -137v-839h-128z" />
<glyph unicode="i" horiz-adv-x="346" d="M106 1246v158h130v-158h-130zM108 0v1065h128v-1065h-128z" />
<glyph unicode="j" horiz-adv-x="342" d="M-77 -236q31 -16 77 -16q40 0 62.5 13.5t32 40.5t9.5 74v1189h128v-1189q0 -61 -10.5 -103.5t-36 -73.5t-70.5 -46t-111 -15q-45 0 -81 13v113zM102 1246v158h130v-158h-130z" />
<glyph unicode="k" horiz-adv-x="634" d="M110 0v1512h128v-911l207 464h141l-241 -514l262 -551h-143l-226 498v-498h-128z" />
<glyph unicode="l" horiz-adv-x="350" d="M110 0v1512h128v-1512h-128z" />
<glyph unicode="m" horiz-adv-x="1036" d="M110 0v1065h77l35 -69q53 90 162 90q122 0 167 -90q17 27 41 46.5t59.5 31.5t76.5 12q107 0 154 -60t47 -178v-848h-128v841q0 64 -23.5 99.5t-80.5 35.5t-85.5 -35t-28.5 -98v-843h-127v841q0 135 -104 135q-39 0 -65 -17t-37.5 -46.5t-11.5 -71.5v-841h-128z" />
<glyph unicode="n" horiz-adv-x="697" d="M110 0v1065h77l35 -69q52 90 158 90q110 0 158 -59.5t48 -185.5v-841h-128v841q0 135 -106 135q-114 0 -114 -137v-839h-128z" />
<glyph unicode="o" horiz-adv-x="677" d="M100 226v611q0 120 54.5 184.5t184.5 64.5q67 0 114 -17.5t73 -51.5t37.5 -77.5t11.5 -102.5v-611q0 -47 -6.5 -83.5t-23 -68t-43 -52t-67.5 -32t-96 -11.5q-69 0 -116.5 17t-74 51t-37.5 77t-11 102zM228 226q0 -46 10 -75t35 -45.5t66 -16.5q59 0 83.5 34t24.5 103v611 q0 70 -24.5 104.5t-83.5 34.5q-41 0 -66 -16.5t-35 -46.5t-10 -76v-611z" />
<glyph unicode="p" horiz-adv-x="697" d="M110 -341v1406h77l35 -69q47 90 158 90q109 0 157.5 -61t48.5 -184v-615q0 -128 -47 -187.5t-155 -59.5q-47 0 -85.5 21t-60.5 55v-396h-128zM238 281q0 -44 4.5 -75.5t15.5 -59.5t34.5 -42.5t59.5 -14.5q56 0 81 35.5t25 101.5v613q0 137 -106 137q-114 0 -114 -139 v-556z" />
<glyph unicode="q" horiz-adv-x="697" d="M110 226v615q0 126 48 185.5t159 59.5t158 -90l34 69h77v-1406h-128v396q-22 -34 -60.5 -55t-84.5 -21q-109 0 -156 59.5t-47 187.5zM238 226q0 -137 107 -137q113 0 113 141v607q0 139 -113 139q-107 0 -107 -137v-613z" />
<glyph unicode="r" horiz-adv-x="451" d="M110 0v1065h91l31 -66q17 30 38 49.5t54.5 32t77.5 12.5v-132q-13 1 -25 1q-65 0 -99 -37q-40 -44 -40 -133v-792h-128z" />
<glyph unicode="s" horiz-adv-x="640" d="M89 222v144h126v-144q0 -72 24 -102.5t80 -30.5t80.5 31t24.5 102v81q0 41 -11.5 74t-30.5 55.5t-44.5 41t-53 35t-55.5 33.5t-53 40t-44.5 51.5t-31 71.5t-11.5 96v40q0 120 52 182.5t178 62.5q53 0 93 -11.5t66 -32t42 -51.5t22.5 -67t6.5 -83v-121h-125v121 q0 72 -25 103.5t-80 31.5t-79.5 -32t-24.5 -103v-40q0 -54 18.5 -94t48 -65t65 -46.5t71 -44.5t65 -52.5t48 -78t18.5 -113.5v-85q0 -59 -10.5 -101.5t-36 -75.5t-71 -49.5t-112 -16.5t-112 16.5t-71 49.5t-36.5 75.5t-11 101.5z" />
<glyph unicode="t" horiz-adv-x="514" d="M47 952v113h104v279q18 5 41.5 11t45.5 12t41 11v-313h168v-113h-168v-737q0 -67 22 -96.5t75 -29.5q40 0 80 15v-108q-15 -7 -41 -12t-45 -5q-123 0 -171 57t-48 179v737h-104z" />
<glyph unicode="u" horiz-adv-x="697" d="M110 224v841h128v-841q0 -44 10 -72.5t35 -45.5t64 -17q59 0 85 34.5t26 100.5v841h128v-1065h-74l-35 69q-47 -90 -160 -90q-110 0 -158.5 59.5t-48.5 185.5z" />
<glyph unicode="v" horiz-adv-x="624" d="M47 1065h132l132 -869l132 869h132l-195 -1065h-138z" />
<glyph unicode="w" horiz-adv-x="998" d="M55 1065h132l116 -880q38 266 132 880h132q45 -314 132 -880l114 880h130l-168 -1065h-147l-128 852l-130 -852h-144z" />
<glyph unicode="x" horiz-adv-x="614" d="M36 0l206 537l-195 528h134l126 -394l126 394h134l-199 -528l209 -537h-134l-136 400l-136 -400h-135z" />
<glyph unicode="y" horiz-adv-x="640" d="M36 -236q39 -16 84 -16q47 0 76.5 30.5t41.5 93.5l24 126l-209 1067h132l138 -833l137 833h132l-230 -1197q-25 -125 -77.5 -177.5t-164.5 -52.5q-52 0 -84 10v116z" />
<glyph unicode="z" horiz-adv-x="557" d="M69 0v79l272 873h-262v113h398v-81l-270 -871h281v-113h-419z" />
<glyph unicode="&#x2000;" horiz-adv-x="767" />
<glyph unicode="&#x2001;" horiz-adv-x="1534" />
<glyph unicode="&#x2002;" horiz-adv-x="767" />
<glyph unicode="&#x2003;" horiz-adv-x="1534" />
<glyph unicode="&#x2004;" horiz-adv-x="511" />
<glyph unicode="&#x2005;" horiz-adv-x="383" />
<glyph unicode="&#x2006;" horiz-adv-x="255" />
<glyph unicode="&#x2007;" horiz-adv-x="255" />
<glyph unicode="&#x2008;" horiz-adv-x="191" />
<glyph unicode="&#x2009;" horiz-adv-x="306" />
<glyph unicode="&#x200a;" horiz-adv-x="85" />
<glyph unicode="&#x202f;" horiz-adv-x="306" />
<glyph unicode="&#x205f;" horiz-adv-x="383" />
<glyph unicode="&#xe000;" horiz-adv-x="1064" d="M0 0v1065h1065v-1065h-1065z" />
</font>
</defs>
</svg>
