<?xml version="1.0" standalone="no"?>
<!DOCTYPE svg PUBLIC "-//W3C//DTD SVG 1.1//EN" "http://www.w3.org/Graphics/SVG/1.1/DTD/svg11.dtd" >
<svg xmlns="http://www.w3.org/2000/svg">
<metadata></metadata>
<defs>
<font id="magicsymbolsregular" horiz-adv-x="1792" >
<font-face units-per-em="2048" ascent="1638" descent="-410" />
<missing-glyph horiz-adv-x="714" />
<glyph horiz-adv-x="2048" />
<glyph horiz-adv-x="2048" />
<glyph unicode="&#xd;" horiz-adv-x="2048" />
<glyph unicode=" "  horiz-adv-x="714" />
<glyph unicode="&#x09;" horiz-adv-x="714" />
<glyph unicode="&#xa0;" horiz-adv-x="714" />
<glyph unicode="0" d="M485 616q0 224 95 412q117 234 319 234q199 0 313 -199q95 -164 95 -381q0 -220 -95 -408q-116 -229 -319 -229q-195 0 -309 197q-99 169 -99 374zM657 684q0 -296 88 -459q61 -114 158 -114q232 0 232 479q0 214 -37 356q-64 240 -215 240q-226 0 -226 -463v-39z" />
<glyph unicode="1" d="M641 66v65h33q143 0 143 172v629q0 174 -121 174h-51v63h19q148 0 270 93h51v-959q0 -172 141 -172h25v-65h-510z" />
<glyph unicode="2" d="M526 72v63q52 59 234 240q89 89 215 229q59 65 82 103q63 89 63 188q0 95 -59 166q-60 72 -150 72q-196 0 -311 -269l-65 25q132 377 419 377q138 0 240 -97q100 -93 100 -237q0 -178 -207 -352l-143 -119q-143 -118 -227 -215l-25 -29h381q86 0 133 35q37 27 76 117h64 l-89 -297h-731z" />
<glyph unicode="3" d="M496 125l36 51q124 -59 224 -59q142 0 258 96q114 95 114 240q0 96 -57.5 161.5t-148.5 65.5q-81 0 -185 -66l-30 58l20 12q104 61 217 145q98 73 98 168q0 62 -46.5 106t-110.5 44q-148 0 -312 -182l-51 39q170 258 416 258q105 0 184 -54q86 -59 86 -161 q0 -74 -61 -144q-37 -43 -123 -106l-25 -19q10 2 39 2q114 0 185 -86q73 -85 73 -200q0 -194 -163 -326q-150 -123 -351 -123q-180 0 -286 80z" />
<glyph unicode="4" d="M414 403v103l516 754h147v-771h13q76 0 110 117h62l-29 -203h-156v-100q0 -172 121 -172h35v-65h-488v65h39q119 0 119 170v102h-489zM487 489h416v617z" />
<glyph unicode="5" d="M518 82l25 61q95 -26 174 -26q151 0 264 98q115 103 115 250q0 129 -84 212t-213 83q-120 0 -221 -82l-41 8l129 553h442q87 0 102 21h64l-37 -166h-539l-53 -240q118 47 207 47q178 0 297 -119q121 -118 121 -293q0 -201 -158 -329q-145 -115 -354 -115q-125 0 -240 37z " />
<glyph unicode="6" d="M504 557q0 215 119 395q121 183 317 258q113 43 238 43v-63q-267 -15 -398 -213q-67 -101 -88 -250q136 127 273 127q151 0 239 -119q84 -110 84 -262q0 -170 -98 -295q-109 -139 -270 -139q-196 0 -312 168q-104 146 -104 350zM678 530q0 -143 49 -262q65 -157 186 -157 q108 0 160 108q41 84 41 203q0 132 -39 217q-52 123 -164 123q-135 0 -231 -158q-2 -25 -2 -74z" />
<glyph unicode="7" d="M504 936l74 326h43q41 -21 135 -21h532v-92q-24 -37 -74 -131q-91 -180 -157 -391q-106 -322 -109 -561h-174v18q0 167 105 416q152 369 290 577l13 19h-408q-87 0 -133.5 -36.5t-69.5 -123.5h-67z" />
<glyph unicode="8" d="M504 356q0 146 135 240q51 33 119 66l-27 18q-114 77 -153 129q-48 63 -48 143q0 140 117 228q107 82 252 82q133 0 240 -72q118 -78 118 -211q0 -160 -223 -258q254 -123 254 -342q0 -158 -121 -250q-110 -84 -272 -84q-151 0 -264 78q-127 89 -127 233zM643 369 q0 -116 74 -187t192 -71q107 0 178.5 58t71.5 155q0 151 -198 245l-134 64q-184 -82 -184 -264zM676 1010q0 -101 94 -162q16 -11 164 -80l31 -14q161 69 161 215q0 97 -67.5 157t-169.5 60q-86 0 -146 -45q-67 -49 -67 -131z" />
<glyph unicode="9" d="M504 823q0 166 98 297q109 142 268 142q197 0 314 -170q104 -149 104 -355q0 -293 -192 -491t-482 -201v64q82 3 142 20q294 88 344 440q-136 -127 -273 -127q-151 0 -239 119q-84 110 -84 262zM678 874q0 -132 39 -217q52 -122 164 -122q136 0 231 157q2 27 2 74 q0 143 -49 262q-65 158 -188 158q-105 0 -158 -109q-41 -84 -41 -203z" />
<glyph unicode="A" d="M436 641q0 167 101.5 267t269.5 100q203 0 446 -156l125 213l76 -541h-582l213 152q-119 94 -274 94q-78 0 -106.5 -29.5t-28.5 -107.5q0 -215 221 -459l-168 -170q-293 358 -293 637z" />
<glyph unicode="B" d="M231 705q0 297 246 497q6 -36 35 -147l80 -19l125 -45q-50 30 -150 113q-35 41 -35 137q0 22 78 53q81 31 105 33q104 14 170 14q258 0 413 -131q-57 -63 -176 -127h6q46 0 138 39q81 35 81 40l-1 1q15 0 65 -65q42 -56 59 -88q69 -126 89 -252q0 -54 2 -68v-16 q0 -136 -99 -185q-23 -13 -180 -38q-98 -15 -98 -76v-166q0 -11 6 -64l6 -65q0 -34 -14 -100l-90 -19q-17 70 -17 84q0 7 5 30.5t5 30.5q0 15 -24 80h-31q-7 -11 -4 -26q7 -38 4 -60q-48 -33 -96 -65l-10 4v145q-4 12 -21 9h-24l-25 -193q-14 -2 -31.5 -2t-38.5 2 q-22 99 -51 201h-16l-25 -78q0 -5 5 -32t5 -32q0 -2 -0.5 -5.5t-1.5 -11t-2 -13.5l-6 -49q-5 -5 -10 -5q-59 0 -80 29q-18 25 -18 74v14l16 246q0 4 4 16t4 15q0 15 -35 65q-7 4 -63 15q-10 3 -28 6.5t-50.5 10t-58.5 11.5q-142 27 -142 228zM338 672q0 -69 68 -90 q54 -15 120 -15l113 -2h10q127 0 127 72q0 88 -78 166q-77 80 -163 80q-78 0 -138 -66q-59 -65 -59 -145zM784 387q0 -84 17 -108q8 2 37 14q12 4 47 4q36 0 94 -25q20 0 20 111v63l-28 56q-15 49 -45 114l-23 -239q0 -29 -12 -29q-8 0 -12 4l-15 190v-1v71q-3 6 -10 6 q-70 -70 -70 -231zM1024 637q0 -72 70 -72l235 2q133 0 133 103q0 81 -61 145q-63 66 -141 66q-85 0 -162 -80q-74 -77 -74 -164z" />
<glyph unicode="C" d="M156 549q0 44 28 86q1 2 66 67q182 186 678 674q23 23 78 23q58 0 120 -62q273 -270 498 -501q23 -23 23 -78q0 -59 -95 -154l-678 -676q-20 -20 -77 -20q-63 0 -121 61q-103 85 -266 228q-178 155 -242 286q-12 24 -12 66z" />
<glyph unicode="G" d="M193 537q0 77 63 125q-51 51 -51 108q0 52 32 90.5t82 44.5v8q0 59 43 82q-22 22 -22 80q0 67 45 112.5t113 45.5q75 0 120 -51q58 202 256 202q106 0 181 -81q28 -31 28 -33q-16 0 3 4l22 4q55 10 72 10q79 0 141 -59q53 -53 74 -135l45 -13q45 -20 45 -77q0 -8 -17 -39 q131 -73 131 -205q0 -36 -28 -103q53 -30 53 -90q0 -41 -31.5 -73.5t-72.5 -32.5q-67 0 -97 61l-96 4q-36 0 -121 -26q-94 -27 -110 -43q-22 -25 -37 -115q-12 -73 -12 -109q0 -52 16 -81q21 -29 72 -43l67 -19q15 0 27 2h24q32 0 56 -8q20 -6 28.5 -14t5.5 -19q-5 1 -11 1 q-30 0 -89 -13l57 -29q0 -24 -69 -24q-14 0 -50 8t-42 8h-27l-12 -61q-39 3 -82 41q-44 38 -60 38q-14 0 -34 -38q-23 -44 -23 -54q-28 15 -45 54l-18 53q-20 -3 -76 -86h-10l-19 47l-12 39q-61 20 -119 20q-26 0 -82 -12l-57 4q11 11 72 47q71 41 106 41q4 0 16.5 -2 t16.5 -2q17 0 45 14q32 17 37.5 29t5.5 64q0 115 -62 174q-52 52 -176 73q-34 -116 -184 -116q-48 0 -98 59q-49 58 -49 109zM535 602h10q104 0 235 -125v27q0 45 -47 86q-45 39 -92 39q-57 0 -106 -27zM604 752h6q21 0 66 -11q52 -10 67 -10q-36 41 -53 72q-86 -21 -86 -51 zM809 862l59 -67v90q-44 8 -59 8v-31zM1042 717q96 56 93 135q-5 2 -93 41v-176zM1047 541q87 47 200 69l-45 56q-8 -6 -32 -22.5t-35.5 -25t-30 -23t-32 -27.5t-25.5 -27z" />
<glyph unicode="O" d="M100 657q0 332 234 566q233 233 565 233q334 0 567 -233q234 -231 234 -566q0 -333 -234 -567q-233 -233 -567 -233t-567 233q-232 235 -232 567z" />
<glyph unicode="P" horiz-adv-x="0" />
<glyph unicode="R" d="M356 346q0 148 99 250q101 104 247 104q37 0 86 -14q52 -14 74 -14q76 0 189 61q113 64 106 64q-21 -216 -143 -289q-88 -52 -88 -100q0 -32 37 -50q25 -14 63 -14q50 0 104 66q47 57 47 107q0 6 -1 11q-2 20 -2 41q0 50 10 107q5 25 30.5 61t45.5 43q0 -18 -15 -61 q-12 -43 -12 -64q0 -45 24 -69q35 14 66 92q27 75 29 115q-86 3 -166 77q-78 75 -78 160q0 9 4 29l37 -58q34 -51 53 -51q25 0 25 51q0 66 -35 119q-40 64 -100 64q-26 0 -86 -31t-105 -31q-15 0 -127 37q199 34 199 60q0 73 -273 94l-98 8q10 10 117 22q112 11 129 11 q486 0 618 -473q23 20 23 61q0 60 -33 139q-12 35 -39 99q168 -210 168 -404q0 -99 -47 -182q-27 -50 -115 -141q-83 -86 -114 -134q93 24 147 48q78 35 141 104q0 -25 -22 -80q-89 -215 -358 -215q-49 0 -107 -12q-86 -18 -86 -51q0 -10 14 -23.5t25 -13.5l-14 -1l84 -3 q80 -2 151 -2q-166 -98 -532 -98q-31 0 -64 1q-138 3 -235 121q-97 117 -97 252zM365 1038q12 75 81 150q75 84 144 84q92 0 92 -76q0 -41 -41 -47l-53 -8q-30 -17 -84 -113l-19 86q-17 -3 -61 -33q-22 -18 -59 -43zM741 1069q10 10 25 10q16 0 61 -28q50 -29 58 -29 q10 0 33 29q25 28 53 28q67 0 67 -71q0 -33 -36.5 -57.5t-75.5 -24.5q-48 0 -88 55q-46 66 -97 88z" />
<glyph unicode="T" d="M436 641q0 167 101.5 267t269.5 100q203 0 446 -156l125 213l76 -541h-582l213 152q-119 94 -274 94q-78 0 -106.5 -29.5t-28.5 -107.5q0 -215 221 -459l-168 -170q-293 358 -293 637z" />
<glyph unicode="U" d="M496 442q0 207 178 467q141 209 342 377q-29 -142 -29 -186q0 -127 80 -248q35 -51 85 -120.5t65 -92.5q79 -115 79 -236q0 -169 -114 -286t-283 -117q-188 0 -299 129q-104 122 -104 313zM1063 406q0 -72 72 -72q75 0 75 100q0 52 -30 119q-30 70 -72 92q6 -12 6 -35 q0 -44 -24 -123z" />
<glyph unicode="W" d="M127 750l94 -50q55 -28 98 -28q29 0 56 49q26 51 74 51q5 0 81 -24q39 56 39 88q0 25 -29.5 56.5t-54.5 31.5q-7 0 -31.5 -6.5t-31.5 -6.5q-37 0 -37 93q0 22 47 280q-2 -25 27 -115q35 -102 82 -102q4 0 32.5 12.5t38.5 12.5q47 0 78 -54l31 -55q42 0 71 30.5t29 73.5 q0 48 -39 68q-37 24 -37 37q0 42 136 145q108 83 141 97q-88 -119 -88 -174q0 -27 35 -62q43 -40 49 -55q9 -20 9 -49q0 -34 -13 -80q53 -39 84 -39q59 0 59 61q0 4 -6 39q-3 36 -2 37q10 29 113 29q69 0 272 -37l-135 -37q-82 -21 -82 -55q0 -8 10 -48.5t10 -52.5 q0 -29 -37 -53l-69 -49q21 -41 33 -53q22 -25 55 -25q24 0 45 43t66 43q54 0 124 -102q91 -132 121 -174q-162 90 -205 90q-34 0 -51 -51q-18 -50 -73 -50q-13 0 -93 17q-39 -56 -39 -76q0 -24 33 -53q36 -31 56 -31q10 0 38.5 6t32.5 6q25 0 25 -92q0 -86 -41 -270 q-53 209 -113 209q-4 0 -33 -12.5t-38 -12.5q-60 0 -107 109q-94 -15 -94 -97q0 -42 39 -65q41 -24 41 -35q0 -51 -162 -170l-119 -86q35 49 57 96q33 65 33 105q0 20 -49 57t-49 78q0 33 24 86q-28 31 -63 31q-82 0 -82 -54l1 10q3 -25 3 -69q0 -63 -102 -63q-89 0 -269 36 q213 53 213 123l-4 20q-2 17 -4 29q-1 5 -1 10q0 57 91 105q-18 94 -98 94q-11 0 -45 -43t-61 -43q-51 0 -127 107q-106 148 -113 158zM569 659v-8q0 -127 97 -219q101 -94 231 -94q138 0 231 90t93 223v8q0 131 -97 228q-96 96 -227 96q-133 0 -229 -96t-99 -228zM604 659 q0 120 86 203q89 86 207 86q119 0 205 -86q88 -85 88 -203q0 -122 -84 -206q-82 -82 -209 -82q-120 0 -207 84q-86 83 -86 204z" />
<glyph unicode="X" d="M334 1108v53h471v-51q-107 -21 -107 -63q0 -27 29 -64l188 -223l152 182q41 50 41 86q0 62 -100 80v53h374v-51q-49 -9 -67 -18q-61 -27 -189 -170q-20 -20 -172 -207l303 -365q99 -120 201 -135v-51h-477v51q113 12 113 64q0 34 -31 73l-207 250l-164 -188 q-61 -70 -61 -115q0 -69 112 -84v-51h-399v51q81 16 129 53q22 16 100 101l246 278l-284 338q-56 65 -86 86q-42 28 -115 37z" />
<glyph unicode="a" horiz-adv-x="2048" d="M436 641q0 167 101.5 267t269.5 100q203 0 446 -156l125 213l76 -541h-582l213 152q-119 94 -274 94q-78 0 -106.5 -29.5t-28.5 -107.5q0 -215 221 -459l-168 -170q-293 358 -293 637z" />
<glyph unicode="b" d="M231 705q0 297 246 497q6 -36 35 -147l80 -19l125 -45q-50 30 -150 113q-35 41 -35 137q0 22 78 53q81 31 105 33q104 14 170 14q258 0 413 -131q-57 -63 -176 -127h6q46 0 138 39q81 35 81 40l-1 1q15 0 65 -65q42 -56 59 -88q69 -126 89 -252q0 -54 2 -68v-16 q0 -136 -99 -185q-23 -13 -180 -38q-98 -15 -98 -76v-166q0 -11 6 -64l6 -65q0 -34 -14 -100l-90 -19q-17 70 -17 84q0 7 5 30.5t5 30.5q0 15 -24 80h-31q-7 -11 -4 -26q7 -38 4 -60q-48 -33 -96 -65l-10 4v145q-4 12 -21 9h-24l-25 -193q-14 -2 -31.5 -2t-38.5 2 q-22 99 -51 201h-16l-25 -78q0 -5 5 -32t5 -32q0 -2 -0.5 -5.5t-1.5 -11t-2 -13.5l-6 -49q-5 -5 -10 -5q-59 0 -80 29q-18 25 -18 74v14l16 246q0 4 4 16t4 15q0 15 -35 65q-7 4 -63 15q-10 3 -28 6.5t-50.5 10t-58.5 11.5q-142 27 -142 228zM338 672q0 -69 68 -90 q54 -15 120 -15l113 -2h10q127 0 127 72q0 88 -78 166q-77 80 -163 80q-78 0 -138 -66q-59 -65 -59 -145zM784 387q0 -84 17 -108q8 2 37 14q12 4 47 4q36 0 94 -25q20 0 20 111v63l-28 56q-15 49 -45 114l-23 -239q0 -29 -12 -29q-8 0 -12 4l-15 190v-1v71q-3 6 -10 6 q-70 -70 -70 -231zM1024 637q0 -72 70 -72l235 2q133 0 133 103q0 81 -61 145q-63 66 -141 66q-85 0 -162 -80q-74 -77 -74 -164z" />
<glyph unicode="c" horiz-adv-x="0" d="M156 549q0 44 28 86q1 2 66 67q182 186 678 674q23 23 78 23q58 0 120 -62q273 -270 498 -501q23 -23 23 -78q0 -59 -95 -154l-678 -676q-20 -20 -77 -20q-63 0 -121 61q-103 85 -266 228q-178 155 -242 286q-12 24 -12 66zM436 641q0 167 101.5 267t269.5 100 q203 0 446 -156l125 213l76 -541h-582l213 152q-119 94 -274 94q-78 0 -106.5 -29.5t-28.5 -107.5q0 -215 221 -459l-168 -170q-293 358 -293 637z" />
<glyph unicode="g" d="M193 537q0 77 63 125q-51 51 -51 108q0 52 32 90.5t82 44.5v8q0 59 43 82q-22 22 -22 80q0 67 45 112.5t113 45.5q75 0 120 -51q58 202 256 202q106 0 181 -81q28 -31 28 -33q-16 0 3 4l22 4q55 10 72 10q79 0 141 -59q53 -53 74 -135l45 -13q45 -20 45 -77q0 -8 -17 -39 q131 -73 131 -205q0 -36 -28 -103q53 -30 53 -90q0 -41 -31.5 -73.5t-72.5 -32.5q-67 0 -97 61l-96 4q-36 0 -121 -26q-94 -27 -110 -43q-22 -25 -37 -115q-12 -73 -12 -109q0 -52 16 -81q21 -29 72 -43l67 -19q15 0 27 2h24q32 0 56 -8q20 -6 28.5 -14t5.5 -19q-5 1 -11 1 q-30 0 -89 -13l57 -29q0 -24 -69 -24q-14 0 -50 8t-42 8h-27l-12 -61q-39 3 -82 41q-44 38 -60 38q-14 0 -34 -38q-23 -44 -23 -54q-28 15 -45 54l-18 53q-20 -3 -76 -86h-10l-19 47l-12 39q-61 20 -119 20q-26 0 -82 -12l-57 4q11 11 72 47q71 41 106 41q4 0 16.5 -2 t16.5 -2q17 0 45 14q32 17 37.5 29t5.5 64q0 115 -62 174q-52 52 -176 73q-34 -116 -184 -116q-48 0 -98 59q-49 58 -49 109zM535 602h10q104 0 235 -125v27q0 45 -47 86q-45 39 -92 39q-57 0 -106 -27zM604 752h6q21 0 66 -11q52 -10 67 -10q-36 41 -53 72q-86 -21 -86 -51 zM809 862l59 -67v90q-44 8 -59 8v-31zM1042 717q96 56 93 135q-5 2 -93 41v-176zM1047 541q87 47 200 69l-45 56q-8 -6 -32 -22.5t-35.5 -25t-30 -23t-32 -27.5t-25.5 -27z" />
<glyph unicode="o" horiz-adv-x="0" d="M100 657q0 332 234 566q233 233 565 233q334 0 567 -233q234 -231 234 -566q0 -333 -234 -567q-233 -233 -567 -233t-567 233q-232 235 -232 567z" />
<glyph unicode="r" d="M356 346q0 148 99 250q101 104 247 104q37 0 86 -14q52 -14 74 -14q76 0 189 61q113 64 106 64q-21 -216 -143 -289q-88 -52 -88 -100q0 -32 37 -50q25 -14 63 -14q50 0 104 66q47 57 47 107q0 6 -1 11q-2 20 -2 41q0 50 10 107q5 25 30.5 61t45.5 43q0 -18 -15 -61 q-12 -43 -12 -64q0 -45 24 -69q35 14 66 92q27 75 29 115q-86 3 -166 77q-78 75 -78 160q0 9 4 29l37 -58q34 -51 53 -51q25 0 25 51q0 66 -35 119q-40 64 -100 64q-26 0 -86 -31t-105 -31q-15 0 -127 37q199 34 199 60q0 73 -273 94l-98 8q10 10 117 22q112 11 129 11 q486 0 618 -473q23 20 23 61q0 60 -33 139q-12 35 -39 99q168 -210 168 -404q0 -99 -47 -182q-27 -50 -115 -141q-83 -86 -114 -134q93 24 147 48q78 35 141 104q0 -25 -22 -80q-89 -215 -358 -215q-49 0 -107 -12q-86 -18 -86 -51q0 -10 14 -23.5t25 -13.5l-14 -1l84 -3 q80 -2 151 -2q-166 -98 -532 -98q-31 0 -64 1q-138 3 -235 121q-97 117 -97 252zM365 1038q12 75 81 150q75 84 144 84q92 0 92 -76q0 -41 -41 -47l-53 -8q-30 -17 -84 -113l-19 86q-17 -3 -61 -33q-22 -18 -59 -43zM741 1069q10 10 25 10q16 0 61 -28q50 -29 58 -29 q10 0 33 29q25 28 53 28q67 0 67 -71q0 -33 -36.5 -57.5t-75.5 -24.5q-48 0 -88 55q-46 66 -97 88z" />
<glyph unicode="t" d="M436 641q0 167 101.5 267t269.5 100q203 0 446 -156l125 213l76 -541h-582l213 152q-119 94 -274 94q-78 0 -106.5 -29.5t-28.5 -107.5q0 -215 221 -459l-168 -170q-293 358 -293 637z" />
<glyph unicode="u" d="M496 442q0 207 178 467q141 209 342 377q-29 -142 -29 -186q0 -127 80 -248q35 -51 85 -120.5t65 -92.5q79 -115 79 -236q0 -169 -114 -286t-283 -117q-188 0 -299 129q-104 122 -104 313zM1063 406q0 -72 72 -72q75 0 75 100q0 52 -30 119q-30 70 -72 92q6 -12 6 -35 q0 -44 -24 -123z" />
<glyph unicode="w" d="M127 750l94 -50q55 -28 98 -28q29 0 56 49q26 51 74 51q5 0 81 -24q39 56 39 88q0 25 -29.5 56.5t-54.5 31.5q-7 0 -31.5 -6.5t-31.5 -6.5q-37 0 -37 93q0 22 47 280q-2 -25 27 -115q35 -102 82 -102q4 0 32.5 12.5t38.5 12.5q47 0 78 -54l31 -55q42 0 71 30.5t29 73.5 q0 48 -39 68q-37 24 -37 37q0 42 136 145q108 83 141 97q-88 -119 -88 -174q0 -27 35 -62q43 -40 49 -55q9 -20 9 -49q0 -34 -13 -80q53 -39 84 -39q59 0 59 61q0 4 -6 39q-3 36 -2 37q10 29 113 29q69 0 272 -37l-135 -37q-82 -21 -82 -55q0 -8 10 -48.5t10 -52.5 q0 -29 -37 -53l-69 -49q21 -41 33 -53q22 -25 55 -25q24 0 45 43t66 43q54 0 124 -102q91 -132 121 -174q-162 90 -205 90q-34 0 -51 -51q-18 -50 -73 -50q-13 0 -93 17q-39 -56 -39 -76q0 -24 33 -53q36 -31 56 -31q10 0 38.5 6t32.5 6q25 0 25 -92q0 -86 -41 -270 q-53 209 -113 209q-4 0 -33 -12.5t-38 -12.5q-60 0 -107 109q-94 -15 -94 -97q0 -42 39 -65q41 -24 41 -35q0 -51 -162 -170l-119 -86q35 49 57 96q33 65 33 105q0 20 -49 57t-49 78q0 33 24 86q-28 31 -63 31q-82 0 -82 -54l1 10q3 -25 3 -69q0 -63 -102 -63q-89 0 -269 36 q213 53 213 123l-4 20q-2 17 -4 29q-1 5 -1 10q0 57 91 105q-18 94 -98 94q-11 0 -45 -43t-61 -43q-51 0 -127 107q-106 148 -113 158zM569 659v-8q0 -127 97 -219q101 -94 231 -94q138 0 231 90t93 223v8q0 131 -97 228q-96 96 -227 96q-133 0 -229 -96t-99 -228zM604 659 q0 120 86 203q89 86 207 86q119 0 205 -86q88 -85 88 -203q0 -122 -84 -206q-82 -82 -209 -82q-120 0 -207 84q-86 83 -86 204z" />
<glyph unicode="x" d="M334 1108v53h471v-51q-107 -21 -107 -63q0 -27 29 -64l188 -223l152 182q41 50 41 86q0 62 -100 80v53h374v-51q-49 -9 -67 -18q-61 -27 -189 -170q-20 -20 -172 -207l303 -365q99 -120 201 -135v-51h-477v51q113 12 113 64q0 34 -31 73l-207 250l-164 -188 q-61 -70 -61 -115q0 -69 112 -84v-51h-399v51q81 16 129 53q22 16 100 101l246 278l-284 338q-56 65 -86 86q-42 28 -115 37z" />
<glyph unicode="&#x2000;" horiz-adv-x="728" />
<glyph unicode="&#x2001;" horiz-adv-x="1456" />
<glyph unicode="&#x2002;" horiz-adv-x="728" />
<glyph unicode="&#x2003;" horiz-adv-x="1456" />
<glyph unicode="&#x2004;" horiz-adv-x="485" />
<glyph unicode="&#x2005;" horiz-adv-x="364" />
<glyph unicode="&#x2006;" horiz-adv-x="242" />
<glyph unicode="&#x2007;" horiz-adv-x="242" />
<glyph unicode="&#x2008;" horiz-adv-x="182" />
<glyph unicode="&#x2009;" horiz-adv-x="291" />
<glyph unicode="&#x200a;" horiz-adv-x="80" />
<glyph unicode="&#x202f;" horiz-adv-x="291" />
<glyph unicode="&#x205f;" horiz-adv-x="364" />
<glyph unicode="&#xe000;" horiz-adv-x="1157" d="M0 0v1157h1157v-1157h-1157z" />
</font>
</defs>
</svg>
